<svg id="Capa_1" enable-background="new 0 0 512 512" viewBox="0 0 512 512" xmlns="http://www.w3.org/2000/svg"><g><path d="m507.686 143.95c8.837 15.305 3.593 34.876-11.713 43.713-15.305 8.837-34.876 3.593-43.713-11.713l-37.856-33.569 9.856-14.928 6.928-4c26.785-15.465 61.034-6.288 76.498 20.497z" fill="#91deb6"/><path d="m451.707 46.966c-8.837-15.305-28.407-20.549-43.713-11.713-15.305 8.837-20.549 28.407-11.713 43.713l18.144 63.426 16.785-18.928c26.784-15.465 35.961-49.714 20.497-76.498z" fill="#91deb6"/><path d="m451.707 46.966c-5.339-9.247-14.596-14.821-24.463-15.837 4.007 2.649 7.476 6.243 10.04 10.685 15.464 26.784 6.287 61.033-20.497 76.497l-6.994 7.887 4.632 16.192 16.784-18.928c26.785-15.463 35.963-49.712 20.498-76.496z" fill="#6ed5a1"/><path d="m507.707 143.96c-6.333-10.97-15.818-18.986-26.65-23.566 5.626 4.336 10.516 9.821 14.288 16.354 8.837 15.305 3.593 34.876-11.713 43.713-8.065 4.656-17.313 5.402-25.552 2.828 10.018 9.418 25.393 11.613 37.914 4.384 15.306-8.836 20.55-28.407 11.713-43.713z" fill="#6ed5a1"/><path d="m483.888 153.287-51.9-30.274-.267-60.081c-.019-4.256-3.474-7.692-7.725-7.692h-.035c-4.268.019-7.711 3.494-7.692 7.761l.286 64.378c-.002.171.003.342.012.513 0 .002 0 .004.001.005.003.055.007.111.011.166.001.016.003.031.004.047.003.036.006.072.01.108.004.037.008.074.012.111.001.009.002.019.003.028.122 1.065.461 2.063.971 2.951.002.004.004.007.006.011.015.025.03.051.045.076.507.86 1.186 1.631 2.023 2.256.011.008.022.017.034.025.03.022.06.044.09.065.03.022.06.043.091.064.014.01.028.019.042.029.187.129.38.25.578.362l55.616 32.441c1.224.714 2.564 1.053 3.886 1.053 2.658 0 5.245-1.373 6.681-3.834 2.148-3.688.902-8.419-2.783-10.569z" fill="#46cc8d"/><path d="m272 272-80 16-96-16-32-112 60.441 30.22c2.097 1.048 4.636.549 6.18-1.215l53.379-61.005 53.379 61.005c1.544 1.764 4.083 2.263 6.18 1.215l60.441-30.22z" fill="#ffe177"/><path d="m273.095 175.453-20.631 72.208c-.632 2.211-2.653 3.736-4.953 3.736h-157.398l5.887 20.603 96 16 80-16 32-112z" fill="#ffd15b"/><path d="m277.698 272h-187.396c-5.69 0-10.302 4.612-10.302 10.302v21.698l96 16 112-16v-21.698c0-5.69-4.612-10.302-10.302-10.302z" fill="#f3f0f3"/><path d="m277.698 272h-5.151v11.396c0 2.845-2.306 5.151-5.151 5.151h-187.396v15.453l96 16 112-16v-21.698c0-5.69-4.612-10.302-10.302-10.302z" fill="#e2dee2"/><path d="m309.698 512h-85.698l-16-16-64 16h-85.698c-5.69 0-10.302-4.612-10.302-10.302v-192.547c0-2.845 2.306-5.151 5.151-5.151h90.849l32 16 48-16h90.849c2.845 0 5.151 2.306 5.151 5.151v192.547c0 5.69-4.612 10.302-10.302 10.302z" fill="#7bacdf"/><path d="m494.579 249.221-42.297-73.261-37.856-33.569-18.144-63.426-42.297-73.26c-3.15-5.455-10.125-7.325-15.581-4.175l-35.67 20.594c-5.455 3.15-7.325 10.125-4.175 15.581l42.297 73.261 45.856 47.426 10.144 49.569 42.297 73.261c3.15 5.455 10.125 7.325 15.581 4.175l35.67-20.594c5.455-3.151 7.324-10.127 4.175-15.582z" fill="#7bacdf"/><path d="m413.595 139.488-17.313-60.522-42.297-73.261c-3.15-5.455-10.125-7.324-15.581-4.175l-3.344 1.931z" fill="#5f99d7"/><path d="m494.579 249.221-42.297-73.261-36.123-32.033 57.817 100.142c3.149 5.455 1.28 12.431-4.175 15.581l-32.325 18.663 1.678 2.907c3.15 5.455 10.126 7.325 15.581 4.175l35.67-20.594c5.454-3.149 7.323-10.125 4.174-15.58z" fill="#5f99d7"/><path d="m439.06 183.594-15.031-44.106-40.969-52.889-42.204 24.367 56 96.994z" fill="#91deb6"/><path d="m410.037 75.28h15.268v112h-15.268z" fill="#6ed5a1" transform="matrix(.866 -.5 .5 .866 -9.683 226.424)"/><path d="m224 491.396-21.315 15.114-58.685-15.114v-187.396h80z" fill="#91deb6"/><path d="m314.849 304h-15.453v177.095c0 5.69-4.612 10.302-10.302 10.302h-241.094v10.302c0 5.689 4.612 10.301 10.302 10.301h85.698l64-16 16 16h85.698c5.69 0 10.302-4.612 10.302-10.302v-192.547c0-2.845-2.306-5.151-5.151-5.151z" fill="#5f99d7"/><path d="m144 491.396h80v20.604h-80z" fill="#6ed5a1"/><path d="m204.806 219.194-18.985 18.985c-1.006 1.006-2.636 1.006-3.642 0l-18.985-18.985c-1.006-1.006-1.006-2.636 0-3.642l18.985-18.985c1.006-1.006 2.636-1.006 3.642 0l18.985 18.985c1.006 1.005 1.006 2.636 0 3.642z" fill="#fd8087"/><path d="m282.366 100.384c-10.497 6.939-19.506 15.958-26.454 26.459-1.02 1.542-3.265 1.543-4.287.002-6.96-10.501-15.97-19.521-26.468-26.46-1.543-1.02-1.545-3.265-.003-4.287 10.5-6.961 19.51-15.972 26.471-26.472 1.022-1.541 3.266-1.54 4.286.002 6.949 10.499 15.958 19.51 26.457 26.47 1.543 1.021 1.541 3.266-.002 4.286z" fill="#ffc344"/><path d="m58.366 244.384c-10.498 6.939-19.506 15.958-26.454 26.459-1.02 1.542-3.265 1.543-4.287.002-6.96-10.501-15.97-19.521-26.468-26.46-1.543-1.02-1.545-3.265-.003-4.287 10.5-6.961 19.51-15.972 26.471-26.472 1.022-1.541 3.266-1.54 4.286.002 6.949 10.499 15.958 19.51 26.457 26.47 1.543 1.021 1.541 3.266-.002 4.286z" fill="#ffc344"/><path d="m378.366 239.914c-10.497 6.939-19.506 15.958-26.454 26.459-1.02 1.542-3.265 1.543-4.287.002-6.96-10.501-15.97-19.521-26.468-26.46-1.543-1.02-1.545-3.265-.003-4.287 10.5-6.961 19.51-15.972 26.471-26.472 1.022-1.541 3.266-1.54 4.286.002 6.949 10.499 15.958 19.51 26.457 26.47 1.543 1.021 1.541 3.266-.002 4.286z" fill="#ffc344"/><g fill="#f3f0f3"><circle cx="184" cy="128" r="16"/><circle cx="64" cy="160" r="16"/><circle cx="304" cy="160" r="16"/></g><g><g><circle cx="240" cy="224" fill="#fd8087" r="7.726"/></g></g><g><g><g><circle cx="128" cy="224" fill="#fd8087" r="7.726"/></g></g></g></g><g/><g/><g/><g/><g/><g/><g/><g/><g/><g/><g/><g/><g/><g/><g/></svg>