<svg width="127" height="124" viewBox="0 0 127 124" fill="none" xmlns="http://www.w3.org/2000/svg">
<g filter="url(#filter0_d_6724_19728)">
<path d="M19.3183 48.1194C17.5024 61.3916 22.8897 75.1005 34.1104 85.759C41.0238 92.3255 51.1145 98.0249 62.6187 97.9999C72.9388 97.977 82.3436 93.2549 88.3834 87.2769C94.4232 81.2989 97.6694 74.1503 100.826 67.1326C104.506 58.9505 108.219 50.6416 108.659 42.052C109.099 33.4624 105.848 24.4112 97.3274 18.3417C90.6246 13.5676 81.2365 11.0579 71.8234 10.3509C55.2112 9.10331 45.1122 10.9185 35.0819 20.1008C26.3026 28.1352 20.7089 37.9682 19.3183 48.1194Z" fill="black"/>
<path d="M18.3276 47.9837L18.3275 47.9839C16.4608 61.6276 22.0092 75.6434 33.4217 86.4841L34.1104 85.759L33.4217 86.4841C40.4587 93.168 50.7844 99.0256 62.6209 98.9999C73.2353 98.9764 82.8841 94.1269 89.0869 87.9877C95.2772 81.8607 98.5889 74.5438 101.738 67.5428L100.863 67.1493L101.738 67.5428C105.402 59.3964 109.206 50.9135 109.657 42.1031C110.112 33.2218 106.745 23.8219 97.9076 17.5272L97.3685 18.284L97.9076 17.5272C91.0006 12.6077 81.4106 10.0681 71.8983 9.3537L71.8235 10.3497L71.8983 9.3537C63.5529 8.72696 56.7517 8.86065 50.7447 10.3438C44.7117 11.8334 39.5328 14.6705 34.4067 19.3632C25.4887 27.5245 19.7555 37.5598 18.3276 47.9837Z" stroke="white" stroke-width="2"/>
</g>
<mask id="mask0_6724_19728" style="mask-type:alpha" maskUnits="userSpaceOnUse" x="18" y="10" width="91" height="88">
<path d="M19.3149 48.1194C17.499 61.3916 22.8862 75.1005 34.107 85.759C41.0203 92.3255 51.1111 98.0249 62.6153 97.9999C72.9354 97.977 82.3402 93.2549 88.38 87.2769C94.4198 81.2989 97.6659 74.1503 100.822 67.1326C104.502 58.9505 108.215 50.6416 108.655 42.052C109.095 33.4624 105.845 24.4112 97.324 18.3417C90.6212 13.5676 81.2331 11.0579 71.82 10.3509C55.2078 9.10331 45.1088 10.9185 35.0785 20.1008C26.2992 28.1352 20.7055 37.9682 19.3149 48.1194Z" fill="black"/>
</mask>
<g mask="url(#mask0_6724_19728)">
<rect x="22.4219" y="14.3135" width="82.8235" height="92.3137" fill="black"/>
</g>
<defs>
<filter id="filter0_d_6724_19728" x="0.97168" y="0" width="125.726" height="124" filterUnits="userSpaceOnUse" color-interpolation-filters="sRGB">
<feFlood flood-opacity="0" result="BackgroundImageFix"/>
<feColorMatrix in="SourceAlpha" type="matrix" values="0 0 0 0 0 0 0 0 0 0 0 0 0 0 0 0 0 0 127 0" result="hardAlpha"/>
<feOffset dy="8"/>
<feGaussianBlur stdDeviation="8"/>
<feColorMatrix type="matrix" values="0 0 0 0 0.568627 0 0 0 0 0.619608 0 0 0 0 0.670588 0 0 0 0.16 0"/>
<feBlend mode="normal" in2="BackgroundImageFix" result="effect1_dropShadow_6724_19728"/>
<feBlend mode="normal" in="SourceGraphic" in2="effect1_dropShadow_6724_19728" result="shape"/>
</filter>
</defs>
</svg>
